<mxfile host="Electron" agent="Mozilla/5.0 (Windows NT 10.0; Win64; x64) AppleWebKit/537.36 (KHTML, like Gecko) draw.io/28.0.4 Chrome/138.0.7204.97 Electron/37.2.1 Safari/537.36" version="28.0.4">
  <diagram name="Page-1" id="vVTfKu-NHyX8f7h_QUsN">
    <mxGraphModel dx="1430" dy="849" grid="0" gridSize="10" guides="1" tooltips="1" connect="1" arrows="1" fold="1" page="1" pageScale="1" pageWidth="827" pageHeight="1169" math="0" shadow="0">
      <root>
        <mxCell id="0" />
        <mxCell id="1" parent="0" />
        <mxCell id="RU10xfVs4ZxT2CASdD6a-30" value="" style="ellipse;whiteSpace=wrap;html=1;aspect=fixed;dashed=1;fillColor=none;perimeterSpacing=0;strokeWidth=2;" parent="1" vertex="1">
          <mxGeometry x="356" y="184" width="354" height="354" as="geometry" />
        </mxCell>
        <mxCell id="RU10xfVs4ZxT2CASdD6a-2" value="Producer 1" style="rounded=0;whiteSpace=wrap;html=1;fillColor=#51C551;" parent="1" vertex="1">
          <mxGeometry x="170" y="307" width="100" height="28" as="geometry" />
        </mxCell>
        <mxCell id="RU10xfVs4ZxT2CASdD6a-3" value="" style="endArrow=classic;html=1;rounded=0;exitX=1;exitY=0.5;exitDx=0;exitDy=0;entryX=0;entryY=0.5;entryDx=0;entryDy=0;entryPerimeter=0;" parent="1" source="RU10xfVs4ZxT2CASdD6a-2" target="RU10xfVs4ZxT2CASdD6a-13" edge="1">
          <mxGeometry width="50" height="50" relative="1" as="geometry">
            <mxPoint x="497" y="435" as="sourcePoint" />
            <mxPoint x="321.3600000000001" y="322.6600000000001" as="targetPoint" />
          </mxGeometry>
        </mxCell>
        <mxCell id="RU10xfVs4ZxT2CASdD6a-5" value="Producer 2" style="rounded=0;whiteSpace=wrap;html=1;fillColor=#51C551;" parent="1" vertex="1">
          <mxGeometry x="170" y="387" width="100" height="28" as="geometry" />
        </mxCell>
        <mxCell id="RU10xfVs4ZxT2CASdD6a-6" value="" style="endArrow=classic;html=1;rounded=0;exitX=1;exitY=0.5;exitDx=0;exitDy=0;entryX=0;entryY=0.5;entryDx=0;entryDy=0;entryPerimeter=0;" parent="1" source="RU10xfVs4ZxT2CASdD6a-5" target="RU10xfVs4ZxT2CASdD6a-12" edge="1">
          <mxGeometry width="50" height="50" relative="1" as="geometry">
            <mxPoint x="497" y="515" as="sourcePoint" />
            <mxPoint x="321.3600000000001" y="401" as="targetPoint" />
          </mxGeometry>
        </mxCell>
        <mxCell id="RU10xfVs4ZxT2CASdD6a-7" value="Topic A" style="rounded=1;whiteSpace=wrap;html=1;shadow=0;glass=0;resizeHeight=0;metaEdit=0;container=0;dropTarget=0;portConstraintRotation=0;arcSize=50;fillColor=#FFE6CC;strokeColor=#36393d;" parent="1" vertex="1">
          <mxGeometry x="489" y="307" width="100" height="28" as="geometry" />
        </mxCell>
        <mxCell id="RU10xfVs4ZxT2CASdD6a-10" value="Topic B" style="rounded=1;whiteSpace=wrap;html=1;shadow=0;glass=0;resizeHeight=0;metaEdit=0;container=0;dropTarget=0;portConstraintRotation=0;arcSize=50;fillColor=#FFE6CC;" parent="1" vertex="1">
          <mxGeometry x="489" y="387" width="100" height="28" as="geometry" />
        </mxCell>
        <mxCell id="RU10xfVs4ZxT2CASdD6a-11" value="" style="endArrow=classic;html=1;rounded=0;exitX=0.93;exitY=0.5;exitDx=0;exitDy=0;exitPerimeter=0;entryX=0;entryY=0.5;entryDx=0;entryDy=0;" parent="1" source="RU10xfVs4ZxT2CASdD6a-12" target="RU10xfVs4ZxT2CASdD6a-10" edge="1">
          <mxGeometry width="50" height="50" relative="1" as="geometry">
            <mxPoint x="421" y="426" as="sourcePoint" />
            <mxPoint x="471" y="376" as="targetPoint" />
          </mxGeometry>
        </mxCell>
        <mxCell id="RU10xfVs4ZxT2CASdD6a-12" value="" style="strokeWidth=2;html=1;shape=mxgraph.flowchart.stored_data;whiteSpace=wrap;gradientColor=#FF9933;" parent="1" vertex="1">
          <mxGeometry x="330" y="387" width="100" height="28" as="geometry" />
        </mxCell>
        <mxCell id="RU10xfVs4ZxT2CASdD6a-14" style="edgeStyle=orthogonalEdgeStyle;rounded=0;orthogonalLoop=1;jettySize=auto;html=1;exitX=0.93;exitY=0.5;exitDx=0;exitDy=0;exitPerimeter=0;entryX=0;entryY=0.5;entryDx=0;entryDy=0;" parent="1" source="RU10xfVs4ZxT2CASdD6a-13" target="RU10xfVs4ZxT2CASdD6a-7" edge="1">
          <mxGeometry relative="1" as="geometry" />
        </mxCell>
        <mxCell id="RU10xfVs4ZxT2CASdD6a-15" style="rounded=0;orthogonalLoop=1;jettySize=auto;html=1;exitX=0.5;exitY=1;exitDx=0;exitDy=0;exitPerimeter=0;entryX=0.5;entryY=0;entryDx=0;entryDy=0;" parent="1" source="RU10xfVs4ZxT2CASdD6a-13" target="RU10xfVs4ZxT2CASdD6a-10" edge="1">
          <mxGeometry relative="1" as="geometry" />
        </mxCell>
        <mxCell id="RU10xfVs4ZxT2CASdD6a-13" value="" style="strokeWidth=2;html=1;shape=mxgraph.flowchart.stored_data;whiteSpace=wrap;fillColor=#FFFFFF;strokeColor=#000000;gradientColor=#FF9933;" parent="1" vertex="1">
          <mxGeometry x="330" y="307" width="100" height="28" as="geometry" />
        </mxCell>
        <mxCell id="RU10xfVs4ZxT2CASdD6a-24" style="edgeStyle=orthogonalEdgeStyle;rounded=0;orthogonalLoop=1;jettySize=auto;html=1;exitX=0.93;exitY=0.5;exitDx=0;exitDy=0;exitPerimeter=0;entryX=0;entryY=0.5;entryDx=0;entryDy=0;startArrow=classic;startFill=1;" parent="1" source="RU10xfVs4ZxT2CASdD6a-16" target="RU10xfVs4ZxT2CASdD6a-22" edge="1">
          <mxGeometry relative="1" as="geometry" />
        </mxCell>
        <mxCell id="RU10xfVs4ZxT2CASdD6a-16" value="" style="strokeWidth=2;html=1;shape=mxgraph.flowchart.stored_data;whiteSpace=wrap;gradientColor=#FF9933;" parent="1" vertex="1">
          <mxGeometry x="653" y="347" width="100" height="28" as="geometry" />
        </mxCell>
        <mxCell id="RU10xfVs4ZxT2CASdD6a-20" style="edgeStyle=orthogonalEdgeStyle;rounded=0;orthogonalLoop=1;jettySize=auto;html=1;exitX=0.93;exitY=0.5;exitDx=0;exitDy=0;exitPerimeter=0;entryX=0;entryY=0.5;entryDx=0;entryDy=0;startArrow=classic;startFill=1;" parent="1" source="RU10xfVs4ZxT2CASdD6a-18" target="RU10xfVs4ZxT2CASdD6a-21" edge="1">
          <mxGeometry relative="1" as="geometry">
            <mxPoint x="823.3304617745537" y="281" as="targetPoint" />
          </mxGeometry>
        </mxCell>
        <mxCell id="RU10xfVs4ZxT2CASdD6a-18" value="" style="strokeWidth=2;html=1;shape=mxgraph.flowchart.stored_data;whiteSpace=wrap;gradientColor=#FF9933;" parent="1" vertex="1">
          <mxGeometry x="618" y="267" width="100" height="28" as="geometry" />
        </mxCell>
        <mxCell id="RU10xfVs4ZxT2CASdD6a-25" style="edgeStyle=orthogonalEdgeStyle;rounded=0;orthogonalLoop=1;jettySize=auto;html=1;exitX=0.93;exitY=0.5;exitDx=0;exitDy=0;exitPerimeter=0;entryX=0;entryY=0.5;entryDx=0;entryDy=0;startArrow=classic;startFill=1;" parent="1" source="RU10xfVs4ZxT2CASdD6a-19" target="RU10xfVs4ZxT2CASdD6a-23" edge="1">
          <mxGeometry relative="1" as="geometry" />
        </mxCell>
        <mxCell id="RU10xfVs4ZxT2CASdD6a-19" value="" style="strokeWidth=2;html=1;shape=mxgraph.flowchart.stored_data;whiteSpace=wrap;gradientColor=#FF9933;" parent="1" vertex="1">
          <mxGeometry x="618" y="427" width="100" height="28" as="geometry" />
        </mxCell>
        <mxCell id="RU10xfVs4ZxT2CASdD6a-21" value="Producer 1" style="rounded=0;whiteSpace=wrap;html=1;fillColor=#66B2FF;" parent="1" vertex="1">
          <mxGeometry x="835" y="267" width="100" height="28" as="geometry" />
        </mxCell>
        <mxCell id="RU10xfVs4ZxT2CASdD6a-22" value="Producer 2" style="rounded=0;whiteSpace=wrap;html=1;fillColor=#66B2FF;" parent="1" vertex="1">
          <mxGeometry x="835" y="347" width="100" height="28" as="geometry" />
        </mxCell>
        <mxCell id="RU10xfVs4ZxT2CASdD6a-23" value="Producer 3" style="rounded=0;whiteSpace=wrap;html=1;fillColor=#66B2FF;" parent="1" vertex="1">
          <mxGeometry x="835" y="427" width="100" height="28" as="geometry" />
        </mxCell>
        <mxCell id="RU10xfVs4ZxT2CASdD6a-26" style="rounded=0;orthogonalLoop=1;jettySize=auto;html=1;exitX=0.75;exitY=0;exitDx=0;exitDy=0;entryX=0;entryY=0.5;entryDx=0;entryDy=0;entryPerimeter=0;" parent="1" source="RU10xfVs4ZxT2CASdD6a-7" target="RU10xfVs4ZxT2CASdD6a-18" edge="1">
          <mxGeometry relative="1" as="geometry" />
        </mxCell>
        <mxCell id="RU10xfVs4ZxT2CASdD6a-27" style="rounded=0;orthogonalLoop=1;jettySize=auto;html=1;exitX=0.75;exitY=1;exitDx=0;exitDy=0;entryX=0;entryY=0.5;entryDx=0;entryDy=0;entryPerimeter=0;" parent="1" source="RU10xfVs4ZxT2CASdD6a-10" target="RU10xfVs4ZxT2CASdD6a-19" edge="1">
          <mxGeometry relative="1" as="geometry" />
        </mxCell>
        <mxCell id="RU10xfVs4ZxT2CASdD6a-28" style="rounded=0;orthogonalLoop=1;jettySize=auto;html=1;exitX=0.75;exitY=1;exitDx=0;exitDy=0;entryX=0.1;entryY=0;entryDx=0;entryDy=0;entryPerimeter=0;" parent="1" source="RU10xfVs4ZxT2CASdD6a-7" target="RU10xfVs4ZxT2CASdD6a-16" edge="1">
          <mxGeometry relative="1" as="geometry" />
        </mxCell>
        <mxCell id="RU10xfVs4ZxT2CASdD6a-29" style="rounded=0;orthogonalLoop=1;jettySize=auto;html=1;exitX=0.75;exitY=0;exitDx=0;exitDy=0;entryX=0.1;entryY=1;entryDx=0;entryDy=0;entryPerimeter=0;" parent="1" source="RU10xfVs4ZxT2CASdD6a-10" target="RU10xfVs4ZxT2CASdD6a-16" edge="1">
          <mxGeometry relative="1" as="geometry" />
        </mxCell>
        <mxCell id="RU10xfVs4ZxT2CASdD6a-31" value="MConnect Events" style="text;html=1;align=center;verticalAlign=middle;whiteSpace=wrap;rounded=0;" parent="1" vertex="1">
          <mxGeometry x="489.5" y="490" width="99" height="30" as="geometry" />
        </mxCell>
        <mxCell id="RU10xfVs4ZxT2CASdD6a-32" value="" style="ellipse;whiteSpace=wrap;html=1;aspect=fixed;dashed=1;fillColor=none;perimeterSpacing=0;strokeWidth=2;strokeColor=#2094F3;" parent="1" vertex="1">
          <mxGeometry x="356" y="617" width="354" height="354" as="geometry" />
        </mxCell>
        <mxCell id="RU10xfVs4ZxT2CASdD6a-33" value="Producer 1" style="rounded=0;whiteSpace=wrap;html=1;fillColor=#51C551;strokeColor=#2094F3;fontColor=#000000;" parent="1" vertex="1">
          <mxGeometry x="170" y="740" width="100" height="28" as="geometry" />
        </mxCell>
        <mxCell id="RU10xfVs4ZxT2CASdD6a-34" value="" style="endArrow=classic;html=1;rounded=0;exitX=1;exitY=0.5;exitDx=0;exitDy=0;entryX=0;entryY=0.5;entryDx=0;entryDy=0;entryPerimeter=0;strokeColor=#2094F3;" parent="1" source="RU10xfVs4ZxT2CASdD6a-33" target="RU10xfVs4ZxT2CASdD6a-43" edge="1">
          <mxGeometry width="50" height="50" relative="1" as="geometry">
            <mxPoint x="497" y="868" as="sourcePoint" />
            <mxPoint x="321.3600000000001" y="755.6600000000001" as="targetPoint" />
          </mxGeometry>
        </mxCell>
        <mxCell id="RU10xfVs4ZxT2CASdD6a-35" value="Producer 2" style="rounded=0;whiteSpace=wrap;html=1;fillColor=#51C551;strokeColor=#2094F3;fontColor=#000000;" parent="1" vertex="1">
          <mxGeometry x="170" y="820" width="100" height="28" as="geometry" />
        </mxCell>
        <mxCell id="RU10xfVs4ZxT2CASdD6a-36" value="" style="endArrow=classic;html=1;rounded=0;exitX=1;exitY=0.5;exitDx=0;exitDy=0;entryX=0;entryY=0.5;entryDx=0;entryDy=0;entryPerimeter=0;strokeColor=#2094F3;" parent="1" source="RU10xfVs4ZxT2CASdD6a-35" target="RU10xfVs4ZxT2CASdD6a-40" edge="1">
          <mxGeometry width="50" height="50" relative="1" as="geometry">
            <mxPoint x="497" y="948" as="sourcePoint" />
            <mxPoint x="321.3600000000001" y="834" as="targetPoint" />
          </mxGeometry>
        </mxCell>
        <mxCell id="RU10xfVs4ZxT2CASdD6a-37" value="Topic A" style="rounded=1;whiteSpace=wrap;html=1;shadow=0;glass=0;resizeHeight=0;metaEdit=0;container=0;dropTarget=0;portConstraintRotation=0;arcSize=50;fillColor=#FFE6CC;strokeColor=#2094F3;fontColor=#000000;" parent="1" vertex="1">
          <mxGeometry x="489" y="740" width="100" height="28" as="geometry" />
        </mxCell>
        <mxCell id="RU10xfVs4ZxT2CASdD6a-38" value="Topic B" style="rounded=1;whiteSpace=wrap;html=1;shadow=0;glass=0;resizeHeight=0;metaEdit=0;container=0;dropTarget=0;portConstraintRotation=0;arcSize=50;fillColor=#FFE6CC;strokeColor=#2094F3;fontColor=#000000;" parent="1" vertex="1">
          <mxGeometry x="489" y="820" width="100" height="28" as="geometry" />
        </mxCell>
        <mxCell id="RU10xfVs4ZxT2CASdD6a-39" value="" style="endArrow=classic;html=1;rounded=0;exitX=0.93;exitY=0.5;exitDx=0;exitDy=0;exitPerimeter=0;entryX=0;entryY=0.5;entryDx=0;entryDy=0;strokeColor=#2094F3;" parent="1" source="RU10xfVs4ZxT2CASdD6a-40" target="RU10xfVs4ZxT2CASdD6a-38" edge="1">
          <mxGeometry width="50" height="50" relative="1" as="geometry">
            <mxPoint x="421" y="859" as="sourcePoint" />
            <mxPoint x="471" y="809" as="targetPoint" />
          </mxGeometry>
        </mxCell>
        <mxCell id="RU10xfVs4ZxT2CASdD6a-40" value="" style="strokeWidth=2;html=1;shape=mxgraph.flowchart.stored_data;whiteSpace=wrap;gradientColor=#FF9933;strokeColor=#2094F3;fillColor=#FFFFFF;" parent="1" vertex="1">
          <mxGeometry x="330" y="820" width="100" height="28" as="geometry" />
        </mxCell>
        <mxCell id="RU10xfVs4ZxT2CASdD6a-41" style="edgeStyle=orthogonalEdgeStyle;rounded=0;orthogonalLoop=1;jettySize=auto;html=1;exitX=0.93;exitY=0.5;exitDx=0;exitDy=0;exitPerimeter=0;entryX=0;entryY=0.5;entryDx=0;entryDy=0;strokeColor=#2094F3;" parent="1" source="RU10xfVs4ZxT2CASdD6a-43" target="RU10xfVs4ZxT2CASdD6a-37" edge="1">
          <mxGeometry relative="1" as="geometry" />
        </mxCell>
        <mxCell id="RU10xfVs4ZxT2CASdD6a-42" style="rounded=0;orthogonalLoop=1;jettySize=auto;html=1;exitX=0.5;exitY=1;exitDx=0;exitDy=0;exitPerimeter=0;entryX=0.5;entryY=0;entryDx=0;entryDy=0;strokeColor=#2094F3;" parent="1" source="RU10xfVs4ZxT2CASdD6a-43" target="RU10xfVs4ZxT2CASdD6a-38" edge="1">
          <mxGeometry relative="1" as="geometry" />
        </mxCell>
        <mxCell id="RU10xfVs4ZxT2CASdD6a-43" value="" style="strokeWidth=2;html=1;shape=mxgraph.flowchart.stored_data;whiteSpace=wrap;fillColor=#FFFFFF;strokeColor=#2094F3;gradientColor=#FF9933;" parent="1" vertex="1">
          <mxGeometry x="330" y="740" width="100" height="28" as="geometry" />
        </mxCell>
        <mxCell id="RU10xfVs4ZxT2CASdD6a-44" style="edgeStyle=orthogonalEdgeStyle;rounded=0;orthogonalLoop=1;jettySize=auto;html=1;exitX=0.93;exitY=0.5;exitDx=0;exitDy=0;exitPerimeter=0;entryX=0;entryY=0.5;entryDx=0;entryDy=0;startArrow=classic;startFill=1;strokeColor=#2094F3;" parent="1" source="RU10xfVs4ZxT2CASdD6a-45" target="RU10xfVs4ZxT2CASdD6a-51" edge="1">
          <mxGeometry relative="1" as="geometry" />
        </mxCell>
        <mxCell id="RU10xfVs4ZxT2CASdD6a-45" value="" style="strokeWidth=2;html=1;shape=mxgraph.flowchart.stored_data;whiteSpace=wrap;gradientColor=#FF9933;strokeColor=#2094F3;fillColor=#FFFFFF;" parent="1" vertex="1">
          <mxGeometry x="653" y="780" width="100" height="28" as="geometry" />
        </mxCell>
        <mxCell id="RU10xfVs4ZxT2CASdD6a-46" style="edgeStyle=orthogonalEdgeStyle;rounded=0;orthogonalLoop=1;jettySize=auto;html=1;exitX=0.93;exitY=0.5;exitDx=0;exitDy=0;exitPerimeter=0;entryX=0;entryY=0.5;entryDx=0;entryDy=0;startArrow=classic;startFill=1;strokeColor=#2094F3;" parent="1" source="RU10xfVs4ZxT2CASdD6a-47" target="RU10xfVs4ZxT2CASdD6a-50" edge="1">
          <mxGeometry relative="1" as="geometry">
            <mxPoint x="823.3304617745537" y="714" as="targetPoint" />
          </mxGeometry>
        </mxCell>
        <mxCell id="RU10xfVs4ZxT2CASdD6a-47" value="" style="strokeWidth=2;html=1;shape=mxgraph.flowchart.stored_data;whiteSpace=wrap;gradientColor=#FF9933;strokeColor=#2094F3;fillColor=#FFFFFF;" parent="1" vertex="1">
          <mxGeometry x="618" y="700" width="100" height="28" as="geometry" />
        </mxCell>
        <mxCell id="RU10xfVs4ZxT2CASdD6a-48" style="edgeStyle=orthogonalEdgeStyle;rounded=0;orthogonalLoop=1;jettySize=auto;html=1;exitX=0.93;exitY=0.5;exitDx=0;exitDy=0;exitPerimeter=0;entryX=0;entryY=0.5;entryDx=0;entryDy=0;startArrow=classic;startFill=1;strokeColor=#2094F3;" parent="1" source="RU10xfVs4ZxT2CASdD6a-49" target="RU10xfVs4ZxT2CASdD6a-52" edge="1">
          <mxGeometry relative="1" as="geometry" />
        </mxCell>
        <mxCell id="RU10xfVs4ZxT2CASdD6a-49" value="" style="strokeWidth=2;html=1;shape=mxgraph.flowchart.stored_data;whiteSpace=wrap;gradientColor=#FF9933;strokeColor=#2094F3;fillColor=#FFFFFF;" parent="1" vertex="1">
          <mxGeometry x="618" y="860" width="100" height="28" as="geometry" />
        </mxCell>
        <mxCell id="RU10xfVs4ZxT2CASdD6a-50" value="Producer 1" style="rounded=0;whiteSpace=wrap;html=1;fillColor=#66B2FF;strokeColor=#2094F3;fontColor=#000000;" parent="1" vertex="1">
          <mxGeometry x="835" y="700" width="100" height="28" as="geometry" />
        </mxCell>
        <mxCell id="RU10xfVs4ZxT2CASdD6a-51" value="Producer 2" style="rounded=0;whiteSpace=wrap;html=1;fillColor=#66B2FF;strokeColor=#2094F3;fontColor=#000000;" parent="1" vertex="1">
          <mxGeometry x="835" y="780" width="100" height="28" as="geometry" />
        </mxCell>
        <mxCell id="RU10xfVs4ZxT2CASdD6a-52" value="Producer 3" style="rounded=0;whiteSpace=wrap;html=1;fillColor=#66B2FF;strokeColor=#2094F3;fontColor=#000000;" parent="1" vertex="1">
          <mxGeometry x="835" y="860" width="100" height="28" as="geometry" />
        </mxCell>
        <mxCell id="RU10xfVs4ZxT2CASdD6a-53" style="rounded=0;orthogonalLoop=1;jettySize=auto;html=1;exitX=0.75;exitY=0;exitDx=0;exitDy=0;entryX=0;entryY=0.5;entryDx=0;entryDy=0;entryPerimeter=0;strokeColor=#2094F3;" parent="1" source="RU10xfVs4ZxT2CASdD6a-37" target="RU10xfVs4ZxT2CASdD6a-47" edge="1">
          <mxGeometry relative="1" as="geometry" />
        </mxCell>
        <mxCell id="RU10xfVs4ZxT2CASdD6a-54" style="rounded=0;orthogonalLoop=1;jettySize=auto;html=1;exitX=0.75;exitY=1;exitDx=0;exitDy=0;entryX=0;entryY=0.5;entryDx=0;entryDy=0;entryPerimeter=0;strokeColor=#2094F3;" parent="1" source="RU10xfVs4ZxT2CASdD6a-38" target="RU10xfVs4ZxT2CASdD6a-49" edge="1">
          <mxGeometry relative="1" as="geometry" />
        </mxCell>
        <mxCell id="RU10xfVs4ZxT2CASdD6a-55" style="rounded=0;orthogonalLoop=1;jettySize=auto;html=1;exitX=0.75;exitY=1;exitDx=0;exitDy=0;entryX=0.1;entryY=0;entryDx=0;entryDy=0;entryPerimeter=0;strokeColor=#2094F3;" parent="1" source="RU10xfVs4ZxT2CASdD6a-37" target="RU10xfVs4ZxT2CASdD6a-45" edge="1">
          <mxGeometry relative="1" as="geometry" />
        </mxCell>
        <mxCell id="RU10xfVs4ZxT2CASdD6a-56" style="rounded=0;orthogonalLoop=1;jettySize=auto;html=1;exitX=0.75;exitY=0;exitDx=0;exitDy=0;entryX=0.1;entryY=1;entryDx=0;entryDy=0;entryPerimeter=0;strokeColor=#2094F3;" parent="1" source="RU10xfVs4ZxT2CASdD6a-38" target="RU10xfVs4ZxT2CASdD6a-45" edge="1">
          <mxGeometry relative="1" as="geometry" />
        </mxCell>
        <mxCell id="RU10xfVs4ZxT2CASdD6a-57" value="MConnect Events" style="text;html=1;align=center;verticalAlign=middle;whiteSpace=wrap;rounded=0;fontColor=#BEC1C6;" parent="1" vertex="1">
          <mxGeometry x="489.5" y="923" width="99" height="30" as="geometry" />
        </mxCell>
      </root>
    </mxGraphModel>
  </diagram>
</mxfile>
